<svg xmlns="http://www.w3.org/2000/svg" xmlns:xlink="http://www.w3.org/1999/xlink" width="72" height="72" viewBox="0 0 72 72">
  <defs>
    <linearGradient id="linear-gradient" x1="0.5" x2="0.5" y2="1" gradientUnits="objectBoundingBox">
      <stop offset="0" stop-color="#92bc2c"/>
      <stop offset="1" stop-color="#afc836"/>
    </linearGradient>
    <filter id="Background" x="0" y="0" width="72" height="72" filterUnits="userSpaceOnUse">
      <feOffset input="SourceAlpha"/>
      <feGaussianBlur stdDeviation="1.5" result="blur"/>
      <feFlood flood-color="#98c32f" flood-opacity="0.702"/>
      <feComposite operator="in" in2="blur"/>
      <feComposite in="SourceGraphic"/>
    </filter>
  </defs>
  <g id="Bug" transform="translate(4.714 4.685)">
    <g transform="matrix(1, 0, 0, 1, -4.71, -4.68)" filter="url(#Background)">
      <rect id="Background-2" data-name="Background" width="63" height="63" rx="31.5" transform="translate(4.5 4.5)" fill="url(#linear-gradient)"/>
    </g>
    <path id="Icon" d="M21.1,34c-.04-.041-4.018-4.136-4.98-9.158-.97-5.059,1.428-10.748,1.453-10.8a20.075,20.075,0,0,0,3.909-1.812A23.484,23.484,0,0,0,24.629,9c.2.167,4.842,4.107,4.842,11.972a14.3,14.3,0,0,1-4.186,9.567A20.931,20.931,0,0,1,21.1,34h0ZM8.369,34a20.9,20.9,0,0,1-4.184-3.465A14.3,14.3,0,0,1,0,20.97C0,12.929,4.794,9.037,4.842,9a23.666,23.666,0,0,0,3.147,3.228A20.287,20.287,0,0,0,11.9,14.038c.1.239,2.4,5.838,1.451,10.8-.962,5.022-4.939,9.118-4.98,9.158v0ZM7.023,7.566l.011-.01A17.73,17.73,0,0,1,9.962,6.168L6.913,2.534A1.176,1.176,0,0,1,7.058.878L7.676.36A1.175,1.175,0,0,1,9.332.5l4.043,4.819a10.86,10.86,0,0,1,1.239-.073,13.556,13.556,0,0,1,1.786.124L19.923.343A1.175,1.175,0,0,1,21.56.054l.661.463a1.176,1.176,0,0,1,.289,1.637L19.719,6.14a21.242,21.242,0,0,1,2.8,1.1c-.3.5-3.027,4.761-7.462,4.761C10.412,12,7.056,7.61,7.023,7.566Z" transform="translate(16.84 14.738)" fill="#fff"/>
  </g>
</svg>
