<svg xmlns="http://www.w3.org/2000/svg" xmlns:xlink="http://www.w3.org/1999/xlink" width="72" height="72" viewBox="0 0 72 72">
  <defs>
    <linearGradient id="linear-gradient" x1="0.5" x2="0.5" y2="0.987" gradientUnits="objectBoundingBox">
      <stop offset="0" stop-color="#f93030"/>
      <stop offset="1" stop-color="#f97b28"/>
    </linearGradient>
    <filter id="Background" x="0" y="0" width="72" height="72" filterUnits="userSpaceOnUse">
      <feOffset input="SourceAlpha"/>
      <feGaussianBlur stdDeviation="1.5" result="blur"/>
      <feFlood flood-color="#d4445d" flood-opacity="0.702"/>
      <feComposite operator="in" in2="blur"/>
      <feComposite in="SourceGraphic"/>
    </filter>
  </defs>
  <g id="Fighting" transform="translate(4.349 4.685)">
    <g transform="matrix(1, 0, 0, 1, -4.35, -4.68)" filter="url(#Background)">
      <rect id="Background-2" data-name="Background" width="63" height="63" rx="31.5" transform="translate(4.5 4.5)" fill="url(#linear-gradient)"/>
    </g>
    <path id="Icon" d="M14.5,32A14.9,14.9,0,0,1,4.247,28.016,13,13,0,0,1,3.978,9.042c0,1.985.015,3.594.054,4.783.051,1.555.138,2.343.258,2.344H4.3c.794-.186.008-13.828,0-13.965l-.079.117V1.75A1.752,1.752,0,0,1,5.968,0H9.322a1.758,1.758,0,0,1,1.643,1.146A1.748,1.748,0,0,1,12.295.534h3.354A1.754,1.754,0,0,1,17.4,2.277a1.736,1.736,0,0,1,.7-.144H21.45a1.752,1.752,0,0,1,1.75,1.75v.383h.359a1.753,1.753,0,0,1,.9.25,3.534,3.534,0,0,1,1.309-.25A3.364,3.364,0,0,1,29,7.592V18.451c0,.022,0,.046,0,.068a13.115,13.115,0,0,1-4.288,9.536A14.91,14.91,0,0,1,14.5,32Z" transform="translate(17.151 16.815)" fill="#fff"/>
  </g>
</svg>
