<svg xmlns="http://www.w3.org/2000/svg" xmlns:xlink="http://www.w3.org/1999/xlink" width="72" height="72" viewBox="0 0 72 72">
  <defs>
    <linearGradient id="linear-gradient" x1="0.5" x2="0.5" y2="1" gradientUnits="objectBoundingBox">
      <stop offset="0" stop-color="#fb9b51"/>
      <stop offset="1" stop-color="#fbae46"/>
    </linearGradient>
    <filter id="Background" x="0" y="0" width="72" height="72" filterUnits="userSpaceOnUse">
      <feOffset input="SourceAlpha"/>
      <feGaussianBlur stdDeviation="1.5" result="blur"/>
      <feFlood flood-color="#fe9e54" flood-opacity="0.702"/>
      <feComposite operator="in" in2="blur"/>
      <feComposite in="SourceGraphic"/>
    </filter>
  </defs>
  <g id="Fire" transform="translate(4.5 4.5)">
    <g transform="matrix(1, 0, 0, 1, -4.5, -4.5)" filter="url(#Background)">
      <path id="Background-2" data-name="Background" d="M31.5,0A31.5,31.5,0,1,1,0,31.5,31.5,31.5,0,0,1,31.5,0Z" transform="translate(4.5 4.5)" fill="url(#linear-gradient)"/>
    </g>
    <path id="Icon" d="M10.858,31.184A10.428,10.428,0,0,1,3.13,27.837,11.2,11.2,0,0,1,.107,18.362a15.458,15.458,0,0,1,1.461-4.84,7.449,7.449,0,0,0-.191,1.631,2.935,2.935,0,0,0,.475,1.542.2.2,0,0,1,.021-.05,22.33,22.33,0,0,1,2.5-4.152A21.3,21.3,0,0,1,7.852,9.609,13.646,13.646,0,0,0,9.947,7.931c2.486-2.778.987-7.879.972-7.931h0s.009,0,.018.012a12.993,12.993,0,0,1,3.605,5.713,10.69,10.69,0,0,1-.065,3.881c-.189,1.367-.353,2.548.172,3.15a1.464,1.464,0,0,0,1.172.421c.059,0,.119,0,.182,0a1.532,1.532,0,0,0,1.375-.721c.783-1.424-.927-4.49-.945-4.521h0a.079.079,0,0,1,.026.012,17.045,17.045,0,0,1,3.632,2.806,10.3,10.3,0,0,1,3.242,7.959,8.759,8.759,0,0,1-4.286,6.778,13.038,13.038,0,0,1-3.867,1.636c.017-.015,1.992-1.655,2.37-3.039.375-1.366-.325-4.161-.361-4.3a.229.229,0,0,1-.007.033A8.522,8.522,0,0,1,15.8,23.007a4.469,4.469,0,0,1-2.88,1.4,3.069,3.069,0,0,0,1.755-2.774,3.144,3.144,0,0,0-6.288,0,3.023,3.023,0,0,0,.294,1.307,3.774,3.774,0,0,1-1.258-2.254c-.011.048-1.16,5.073,2.129,7.4a7.718,7.718,0,0,0,4.5,1.147,20.725,20.725,0,0,0,5.385-.813s-.005.008-.015.015A16.777,16.777,0,0,1,10.858,31.184Z" transform="translate(19.181 16.761)" fill="#fff"/>
  </g>
</svg>
