<svg xmlns="http://www.w3.org/2000/svg" xmlns:xlink="http://www.w3.org/1999/xlink" width="72" height="72" viewBox="0 0 72 72">
  <defs>
    <linearGradient id="linear-gradient" x1="0.5" x2="0.5" y2="0.987" gradientUnits="objectBoundingBox">
      <stop offset="0" stop-color="#3a4a77"/>
      <stop offset="1" stop-color="#4f4c98"/>
    </linearGradient>
    <filter id="Background" x="0" y="0" width="72" height="72" filterUnits="userSpaceOnUse">
      <feOffset input="SourceAlpha"/>
      <feGaussianBlur stdDeviation="1.5" result="blur"/>
      <feFlood flood-color="#4f4c98" flood-opacity="0.788"/>
      <feComposite operator="in" in2="blur"/>
      <feComposite in="SourceGraphic"/>
    </filter>
  </defs>
  <g id="Ghost" transform="translate(4.168 4.517)">
    <g transform="matrix(1, 0, 0, 1, -4.17, -4.52)" filter="url(#Background)">
      <rect id="Background-2" data-name="Background" width="63" height="63" rx="31.5" transform="translate(4.5 4.5)" fill="url(#linear-gradient)"/>
    </g>
    <path id="Icon" d="M14.269,28.9A17.591,17.591,0,0,1,4.158,24.1,13.7,13.7,0,0,1,0,14.206,14.371,14.371,0,0,1,14.5,0,14.371,14.371,0,0,1,29,14.206a14.009,14.009,0,0,1-3.713,9.49.639.639,0,0,0-.209.535c.068.42.7.774,1.317,1.116s1.263.7,1.358,1.139a.621.621,0,0,1-.138.514c-.557.761-3.549,1.735-6.719,1.9-1.265.065-2.655.1-3.913.1A25.242,25.242,0,0,1,14.269,28.9Zm4.083-14.25a2.246,2.246,0,0,0,2.264-2.22,2.213,2.213,0,0,0-1.132-1.921v.957a.964.964,0,0,1-.965.964H16.085A2.247,2.247,0,0,0,18.352,14.649ZM7.929,12.429a2.266,2.266,0,0,0,4.532,0H10.027a.964.964,0,0,1-.965-.964v-.957A2.212,2.212,0,0,0,7.929,12.429Z" transform="translate(17.332 16.983)" fill="#fff"/>
  </g>
</svg>
