<svg xmlns="http://www.w3.org/2000/svg" xmlns:xlink="http://www.w3.org/1999/xlink" width="72" height="72" viewBox="0 0 72 72">
  <defs>
    <linearGradient id="linear-gradient" x1="0.5" x2="0.5" y2="1" gradientUnits="objectBoundingBox">
      <stop offset="0" stop-color="#a864c7"/>
      <stop offset="1" stop-color="#c261d4"/>
    </linearGradient>
    <filter id="Background" x="0" y="0" width="72" height="72" filterUnits="userSpaceOnUse">
      <feOffset input="SourceAlpha"/>
      <feGaussianBlur stdDeviation="1.5" result="blur"/>
      <feFlood flood-color="#a36bcb" flood-opacity="0.702"/>
      <feComposite operator="in" in2="blur"/>
      <feComposite in="SourceGraphic"/>
    </filter>
  </defs>
  <g id="Poison" transform="translate(4.168 4.349)">
    <g transform="matrix(1, 0, 0, 1, -4.17, -4.35)" filter="url(#Background)">
      <rect id="Background-2" data-name="Background" width="63" height="63" rx="31.5" transform="translate(4.5 4.5)" fill="url(#linear-gradient)"/>
    </g>
    <g id="Icon" transform="translate(14.689 10.072)">
      <path id="Path_48" data-name="Path 48" d="M-506.459-29.815a.978.978,0,0,0-.657.821,17.245,17.245,0,0,0,8.3,14.63c.193.085.986.1,1.174-.2.42-.7,5.808-8.932,5.886-9.115a1,1,0,0,0-.384-1.045c-2.1-1.137-2.7-2.433-2.814-5.038a.762.762,0,0,0-.777-.655C-496.335-30.415-505.282-29.974-506.459-29.815Z" transform="translate(507.118 51.78)" fill="#fff"/>
      <path id="Path_49" data-name="Path 49" d="M.659.6A.978.978,0,0,0,0,1.422a17.245,17.245,0,0,0,8.3,14.63c.193.085.986.1,1.174-.2.42-.7,5.808-8.932,5.886-9.115a1,1,0,0,0-.384-1.045c-2.1-1.137-2.7-2.433-2.814-5.038A.762.762,0,0,0,11.385,0C10.783,0,1.836.441.659.6Z" transform="translate(27.149 8.052) rotate(120)" fill="#fff"/>
      <path id="Path_50" data-name="Path 50" d="M.659.6A.978.978,0,0,0,0,1.422a17.245,17.245,0,0,0,8.3,14.63c.193.085.986.1,1.174-.2.42-.7,5.808-8.932,5.886-9.115a1,1,0,0,0-.384-1.045c-2.1-1.137-2.7-2.433-2.814-5.038A.762.762,0,0,0,11.385,0C10.783,0,1.836.441.659.6Z" transform="translate(24.72 38.238) rotate(-120)" fill="#fff"/>
      <circle id="Ellipse_11" data-name="Ellipse 11" cx="3.158" cy="3.158" r="3.158" transform="translate(14.15 19.398)" fill="#fff"/>
    </g>
  </g>
</svg>
