<svg xmlns="http://www.w3.org/2000/svg" xmlns:xlink="http://www.w3.org/1999/xlink" width="72" height="72" viewBox="0 0 72 72">
  <defs>
    <linearGradient id="linear-gradient" x1="0.5" x2="0.5" y2="1" gradientUnits="objectBoundingBox">
      <stop offset="0" stop-color="#e0467a"/>
      <stop offset="1" stop-color="#ff4f8d"/>
    </linearGradient>
    <filter id="Background" x="0" y="0" width="72" height="72" filterUnits="userSpaceOnUse">
      <feOffset input="SourceAlpha"/>
      <feGaussianBlur stdDeviation="1.5" result="blur"/>
      <feFlood flood-color="#e2467b" flood-opacity="0.749"/>
      <feComposite operator="in" in2="blur"/>
      <feComposite in="SourceGraphic"/>
    </filter>
  </defs>
  <g id="Psychic" transform="translate(4.622 4.349)">
    <g transform="matrix(1, 0, 0, 1, -4.62, -4.35)" filter="url(#Background)">
      <rect id="Background-2" data-name="Background" width="63" height="63" rx="31.5" transform="translate(4.5 4.5)" fill="url(#linear-gradient)"/>
    </g>
    <path id="Icon" d="M19.14,24.081c-4.216,0-8.428-1.7-12.521-5.039A38.417,38.417,0,0,1,0,11.928L.025,11.9a41.157,41.157,0,0,1,6.5-6.766C10.733,1.726,14.976,0,19.14,0A20.7,20.7,0,0,1,31.756,4.709a36.364,36.364,0,0,1,7.168,7.455,30.431,30.431,0,0,1-6.881,7.057,26.735,26.735,0,0,1-5.9,3.41A18.494,18.494,0,0,1,19.14,24.081ZM19.481,4a8.42,8.42,0,1,0,8.421,8.42A8.429,8.429,0,0,0,19.481,4Zm0,12.631a4.211,4.211,0,1,1,4.212-4.211A4.215,4.215,0,0,1,19.481,16.63Z" transform="translate(11.884 19.577)" fill="#fff"/>
  </g>
</svg>
