<svg xmlns="http://www.w3.org/2000/svg" xmlns:xlink="http://www.w3.org/1999/xlink" width="72" height="72" viewBox="0 0 72 72">
  <defs>
    <linearGradient id="linear-gradient" x1="0.5" x2="0.5" y2="1" gradientUnits="objectBoundingBox">
      <stop offset="0" stop-color="#9898a8"/>
      <stop offset="1" stop-color="#b8b8d0"/>
    </linearGradient>
    <filter id="Background" x="0" y="0" width="72" height="72" filterUnits="userSpaceOnUse">
      <feOffset input="SourceAlpha"/>
      <feGaussianBlur stdDeviation="1.5" result="blur"/>
      <feFlood flood-color="#b8b8d0"/>
      <feComposite operator="in" in2="blur"/>
      <feComposite in="SourceGraphic"/>
    </filter>
  </defs>
  <g id="Steel" transform="translate(5 4.349)">
    <g transform="matrix(1, 0, 0, 1, -5, -4.35)" filter="url(#Background)">
      <rect id="Background-2" data-name="Background" width="63" height="63" rx="31.5" transform="translate(4.5 4.5)" fill="url(#linear-gradient)"/>
    </g>
    <g id="Icon" transform="translate(16.502 17.494)">
      <path id="Path_51" data-name="Path 51" d="M-762.9-36.839c1.786,1.816,2.722,2.734,4.318,4.293-1.587,1.6-2.9,2.9-3.97,3.97a17.966,17.966,0,0,0-2.692,3.1,4.242,4.242,0,0,0-.561,3.139,4.395,4.395,0,0,0,1.161,2.332c1.753,1.728,3.985,1.808,6.24.356a13.294,13.294,0,0,0,2.034-1.9c1.12-1.137,2.5-2.547,4.386-4.386,2.406,2.427,3.117,3.138,4.369,4.378-1.084,1.093-2.39,2.372-3.707,3.707a20.273,20.273,0,0,1-5.563,4.429,11.219,11.219,0,0,1-8.009.4,7.87,7.87,0,0,1-2.547-1.366,9.294,9.294,0,0,1-1.508-1.274,10.5,10.5,0,0,1-3.119-7.555,10.747,10.747,0,0,1,2.5-6.958,30.493,30.493,0,0,1,2.648-2.768C-765.626-34.2-764.38-35.393-762.9-36.839Z" transform="translate(772.067 41.557)" fill="#fff"/>
      <rect id="Rectangle_7" data-name="Rectangle 7" width="6.287" height="4.814" transform="translate(13.749 0) rotate(45)" fill="#fff"/>
      <rect id="Rectangle_8" data-name="Rectangle 8" width="6.287" height="4.814" transform="translate(24.682 10.934) rotate(45)" fill="#fff"/>
    </g>
  </g>
</svg>
