<svg xmlns="http://www.w3.org/2000/svg" xmlns:xlink="http://www.w3.org/1999/xlink" width="72" height="72" viewBox="0 0 72 72">
  <defs>
    <linearGradient id="linear-gradient" x1="0.5" x2="0.5" y2="1" gradientUnits="objectBoundingBox">
      <stop offset="0" stop-color="#4a90dd"/>
      <stop offset="1" stop-color="#6cbde4"/>
    </linearGradient>
    <filter id="Background" x="0" y="0" width="72" height="72" filterUnits="userSpaceOnUse">
      <feOffset input="SourceAlpha"/>
      <feGaussianBlur stdDeviation="1.5" result="blur"/>
      <feFlood flood-color="#559edf" flood-opacity="0.702"/>
      <feComposite operator="in" in2="blur"/>
      <feComposite in="SourceGraphic"/>
    </filter>
  </defs>
  <g id="Water" transform="translate(4.441 4.685)">
    <g transform="matrix(1, 0, 0, 1, -4.44, -4.68)" filter="url(#Background)">
      <rect id="Background-2" data-name="Background" width="63" height="63" rx="31.5" transform="translate(4.5 4.5)" fill="url(#linear-gradient)"/>
    </g>
    <path id="Icon" d="M11.018,31.124a12.488,12.488,0,0,1-5.734-1.546,11.493,11.493,0,0,1-4.31-3.807,5.143,5.143,0,0,1-.5-5.147L10.067.6a1.054,1.054,0,0,1,1.9,0c.068.15,6.827,15.069,9.2,20.025a4.923,4.923,0,0,1,.465,2.724,6.231,6.231,0,0,1-.965,2.608,11.108,11.108,0,0,1-4.122,3.681A11.932,11.932,0,0,1,11.018,31.124ZM4.358,17.479a10.992,10.992,0,0,0-1.564,2.858,5.715,5.715,0,0,0,.652,5.655,4.405,4.405,0,0,0,3.439,1.735,2.543,2.543,0,0,0,2.547-1.415c.254-.826-.277-1.738-1.5-2.567a9.9,9.9,0,0,1-2.4-2.233A6.389,6.389,0,0,1,4.509,19.5,4.329,4.329,0,0,1,4.358,17.479Z" transform="translate(20.601 17.571)" fill="#fff"/>
  </g>
</svg>
