<svg xmlns="http://www.w3.org/2000/svg" xmlns:xlink="http://www.w3.org/1999/xlink" width="72" height="72" viewBox="0 0 72 72">
  <defs>
    <filter id="Path_5" x="0" y="0" width="72" height="72" filterUnits="userSpaceOnUse">
      <feOffset input="SourceAlpha"/>
      <feGaussianBlur stdDeviation="1.5" result="blur"/>
      <feFlood flood-opacity="0.42"/>
      <feComposite operator="in" in2="blur"/>
      <feComposite in="SourceGraphic"/>
    </filter>
  </defs>
  <g id="Genderless" transform="translate(-565.5 -57.5)">
    <g transform="matrix(1, 0, 0, 1, 565.5, 57.5)" filter="url(#Path_5)">
      <path id="Path_5-2" data-name="Path 5" d="M31.5,0A31.5,31.5,0,1,1,0,31.5,31.5,31.5,0,0,1,31.5,0Z" transform="translate(4.5 4.5)" fill="#b7b7b7"/>
    </g>
    <g id="Group_9" data-name="Group 9" transform="translate(589.924 78.054)">
      <g id="Ellipse_6" data-name="Ellipse 6" transform="translate(0 2.021)" fill="none" stroke="#fff" stroke-width="3">
        <ellipse cx="10" cy="10.5" rx="10" ry="10.5" stroke="none"/>
        <ellipse cx="10" cy="10.5" rx="8.5" ry="9" fill="none"/>
      </g>
      <line id="Line_4" data-name="Line 4" y1="6.56" x2="6.56" transform="translate(16.746 0)" fill="none" stroke="#fff" stroke-width="3"/>
      <line id="Line_5" data-name="Line 5" y2="7.827" transform="translate(10.139 23.044)" fill="none" stroke="#fff" stroke-linecap="round" stroke-width="3"/>
      <line id="Line_6" data-name="Line 6" x2="7.245" transform="translate(6.516 26.147)" fill="none" stroke="#fff" stroke-linecap="round" stroke-width="3"/>
      <path id="Path_7" data-name="Path 7" d="M601.727,81.5h5.688v5.527" transform="translate(-584.019 -81.5)" fill="none" stroke="#fff" stroke-linecap="round" stroke-width="3"/>
    </g>
  </g>
</svg>
