<svg xmlns="http://www.w3.org/2000/svg" width="54.08" height="51.483"><defs><clipPath id="a"><path fill="none" d="M0 0h23.65v29.699H0z"/></clipPath></defs><g transform="translate(.75 .75)"><circle cx="1.269" cy="1.269" r="1.269" transform="translate(25.023 36.609)" fill="none" stroke="#fff" stroke-linecap="round" stroke-linejoin="round" stroke-miterlimit="1.006" stroke-width="1.5"/><path d="M17.371 40.852l-5.666 8.843M35.574 40.852l5.728 8.843M52.578 6.017A6.017 6.017 0 0046.565 0H6.018A6.017 6.017 0 00-.001 6.017v28.816a6.017 6.017 0 006.017 6.017h40.549a6.017 6.017 0 006.013-6.017zM0 34.861l52.58.13z" fill="none" stroke="#fff" stroke-linecap="round" stroke-linejoin="round" stroke-miterlimit="1.5" stroke-width="1.5"/><g transform="translate(15.572 2.768)" clip-path="url(#a)"><circle cx="4.075" cy="4.075" r="4.075" fill="none" stroke="#fff" stroke-linecap="round" stroke-linejoin="round" stroke-miterlimit="1.006" stroke-width="1.5" transform="translate(.75 .75)"/><path d="M.753 4.826H3.53M6.187 4.826h2.714" fill="none" stroke="#fff" stroke-linecap="round" stroke-linejoin="round" stroke-miterlimit="1.006" stroke-width="1.5"/><ellipse cx="1.104" cy="1.08" rx="1.104" ry="1.08" transform="translate(3.721 3.745)" stroke-width="1.5" stroke="#fff" stroke-linecap="round" stroke-linejoin="round" stroke-miterlimit="1.006" fill="none"/><g><circle cx="4.075" cy="4.075" r="4.075" fill="none" stroke="#fff" stroke-linecap="round" stroke-linejoin="round" stroke-miterlimit="1.006" stroke-width="1.5" transform="translate(.75 10.754)"/><path d="M.753 14.83H3.53M6.187 14.83h2.714" fill="none" stroke="#fff" stroke-linecap="round" stroke-linejoin="round" stroke-miterlimit="1.006" stroke-width="1.5"/><ellipse cx="1.104" cy="1.08" rx="1.104" ry="1.08" transform="translate(3.721 13.749)" stroke-width="1.5" stroke="#fff" stroke-linecap="round" stroke-linejoin="round" stroke-miterlimit="1.006" fill="none"/></g><g><circle cx="4.075" cy="4.075" r="4.075" transform="translate(.75 20.8)" fill="none" stroke="#fff" stroke-linecap="round" stroke-linejoin="round" stroke-miterlimit="1.006" stroke-width="1.5"/><path d="M.753 24.876H3.53M6.187 24.876h2.714" fill="none" stroke="#fff" stroke-linecap="round" stroke-linejoin="round" stroke-miterlimit="1.006" stroke-width="1.5"/><ellipse cx="1.104" cy="1.08" rx="1.104" ry="1.08" transform="translate(3.721 23.795)" stroke-width="1.5" stroke="#fff" stroke-linecap="round" stroke-linejoin="round" stroke-miterlimit="1.006" fill="none"/></g><g><circle cx="4.075" cy="4.075" r="4.075" fill="none" stroke="#fff" stroke-linecap="round" stroke-linejoin="round" stroke-miterlimit="1.006" stroke-width="1.5" transform="translate(12.75 .75)"/><path d="M12.753 4.826h2.777M18.187 4.826h2.714" fill="none" stroke="#fff" stroke-linecap="round" stroke-linejoin="round" stroke-miterlimit="1.006" stroke-width="1.5"/><ellipse cx="1.104" cy="1.08" rx="1.104" ry="1.08" transform="translate(15.721 3.745)" stroke-width="1.5" stroke="#fff" stroke-linecap="round" stroke-linejoin="round" stroke-miterlimit="1.006" fill="none"/><g><circle cx="4.075" cy="4.075" r="4.075" fill="none" stroke="#fff" stroke-linecap="round" stroke-linejoin="round" stroke-miterlimit="1.006" stroke-width="1.5" transform="translate(12.75 10.754)"/><path d="M12.753 14.83h2.777M18.187 14.83h2.714" fill="none" stroke="#fff" stroke-linecap="round" stroke-linejoin="round" stroke-miterlimit="1.006" stroke-width="1.5"/><ellipse cx="1.104" cy="1.08" rx="1.104" ry="1.08" transform="translate(15.721 13.749)" stroke-width="1.5" stroke="#fff" stroke-linecap="round" stroke-linejoin="round" stroke-miterlimit="1.006" fill="none"/></g><g><circle cx="4.075" cy="4.075" r="4.075" transform="translate(12.75 20.8)" fill="none" stroke="#fff" stroke-linecap="round" stroke-linejoin="round" stroke-miterlimit="1.006" stroke-width="1.5"/><path d="M12.753 24.876h2.777M18.187 24.876h2.714" fill="none" stroke="#fff" stroke-linecap="round" stroke-linejoin="round" stroke-miterlimit="1.006" stroke-width="1.5"/><ellipse cx="1.104" cy="1.08" rx="1.104" ry="1.08" transform="translate(15.721 23.795)" stroke-width="1.5" stroke="#fff" stroke-linecap="round" stroke-linejoin="round" stroke-miterlimit="1.006" fill="none"/></g></g></g></g></svg>